<svg version="1.1" xmlns="http://www.w3.org/2000/svg" viewBox="0 0 1402 1673" width="1402" height="1673">
  <!-- svg-source:excalidraw -->
  
  <defs>
    <style class="style-fonts">
      @font-face {
        font-family: "Virgil";
        src: url("https://excalidraw.com/Virgil.woff2");
      }
      @font-face {
        font-family: "Cascadia";
        src: url("https://excalidraw.com/Cascadia.woff2");
      }
      @font-face {
        font-family: "Assistant";
        src: url("https://excalidraw.com/Assistant-Regular.woff2");
      }
    </style>
    
  </defs>
  <rect x="0" y="0" width="1402" height="1673" fill="#ffffff"></rect><g stroke-linecap="round" transform="translate(10 32) rotate(0 688 394)"><path d="M32 0 C481.69 0.12, 931.28 0.15, 1344 0 M32 0 C368.42 4.55, 704.88 4.41, 1344 0 M1344 0 C1366.79 0.78, 1376.43 11.48, 1376 32 M1344 0 C1364.81 -0.38, 1377.12 8.65, 1376 32 M1376 32 C1376.94 243.67, 1378.14 455.75, 1376 756 M1376 32 C1376.1 271.28, 1376.23 510.79, 1376 756 M1376 756 C1377.34 775.7, 1364.91 789.52, 1344 788 M1376 756 C1374.43 776.62, 1363.7 787.03, 1344 788 M1344 788 C983.96 790.58, 622.67 789.16, 32 788 M1344 788 C922.46 783.06, 500.59 783.05, 32 788 M32 788 C9.54 789.17, 1.81 778.49, 0 756 M32 788 C12.52 790.02, -0.05 777.11, 0 756 M0 756 C-1.98 554.32, -2.75 352.82, 0 32 M0 756 C2.18 471.53, 2.08 188.02, 0 32 M0 32 C0.39 12.47, 10.15 -1.25, 32 0 M0 32 C1.68 9.16, 9.81 1.59, 32 0" stroke="#1e1e1e" stroke-width="2" fill="none"></path></g><g transform="translate(426 79) rotate(0 272.14000671386725 33)"><text x="0" y="46.25280000000001" font-family="Virgil, Segoe UI Emoji" font-size="52.80000000000001px" fill="#1e1e1e" text-anchor="start" style="white-space: pre;" direction="ltr" dominant-baseline="alphabetic">Simple Task Manager</text></g><g stroke-linecap="round" transform="translate(424 226) rotate(0 240.5 36.5)"><path d="M18.25 0 C186.27 -0.97, 354.96 -0.63, 462.75 0 M18.25 0 C185.01 0.6, 352.17 0.37, 462.75 0 M462.75 0 C473.23 0.05, 479.33 6.81, 481 18.25 M462.75 0 C473.04 0.1, 481.76 6.02, 481 18.25 M481 18.25 C479.65 27.04, 479.9 33.6, 481 54.75 M481 18.25 C481.79 29.73, 481.18 41.12, 481 54.75 M481 54.75 C482.04 65.9, 475.29 71.65, 462.75 73 M481 54.75 C479.93 68.28, 474.1 73.84, 462.75 73 M462.75 73 C304.2 71.76, 143.38 71.68, 18.25 73 M462.75 73 C312.06 72.97, 160.84 72.89, 18.25 73 M18.25 73 C5.77 73.84, -0.69 65.55, 0 54.75 M18.25 73 C5 72.46, 0.75 68.38, 0 54.75 M0 54.75 C-2.2 43.3, -0.59 28.46, 0 18.25 M0 54.75 C0.12 41.19, -0.05 29.09, 0 18.25 M0 18.25 C1.76 6.12, 4.8 -0.46, 18.25 0 M0 18.25 C0.56 7.03, 3.87 -1.64, 18.25 0" stroke="#1e1e1e" stroke-width="2" fill="none"></path></g><g transform="translate(451 261) rotate(0 8.258333206176758 12.5)"><text x="0" y="17.52" font-family="Virgil, Segoe UI Emoji" font-size="20px" fill="#1e1e1e" text-anchor="start" style="white-space: pre;" direction="ltr" dominant-baseline="alphabetic">_</text></g><g transform="translate(924 252) rotate(0 17.941667556762695 12.5)"><text x="0" y="17.52" font-family="Virgil, Segoe UI Emoji" font-size="20px" fill="#1e1e1e" text-anchor="start" style="white-space: pre;" direction="ltr" dominant-baseline="alphabetic">Add</text></g><g stroke-linecap="round" transform="translate(425 334) rotate(0 240 37)"><path d="M18.5 0 C114.86 2.72, 212.64 1.34, 461.5 0 M18.5 0 C130.87 -0.72, 242.42 -0.96, 461.5 0 M461.5 0 C473.1 -1.5, 481.83 4.54, 480 18.5 M461.5 0 C474.23 -0.9, 481.45 5.94, 480 18.5 M480 18.5 C480.83 28.92, 479.04 34.09, 480 55.5 M480 18.5 C480.38 27.07, 481.1 34.77, 480 55.5 M480 55.5 C478.08 66.05, 472.73 75.78, 461.5 74 M480 55.5 C479.93 68.59, 472.02 75.24, 461.5 74 M461.5 74 C367.73 75.1, 274.57 75.81, 18.5 74 M461.5 74 C337.1 73.24, 212.47 73.74, 18.5 74 M18.5 74 C7.83 72.63, 1.87 68.42, 0 55.5 M18.5 74 C5.67 72.4, -1.77 69.74, 0 55.5 M0 55.5 C1.31 40.89, 1.75 26.9, 0 18.5 M0 55.5 C0.99 42.82, 1.17 31.12, 0 18.5 M0 18.5 C-1.58 6, 5.23 1.43, 18.5 0 M0 18.5 C-2.25 6.95, 5.27 -1.61, 18.5 0" stroke="#1e1e1e" stroke-width="2" fill="none"></path></g><g stroke-linecap="round" transform="translate(425 469) rotate(0 240 37)"><path d="M18.5 0 C186.45 1.52, 353.23 1.67, 461.5 0 M18.5 0 C194.7 -2.33, 371.44 -2.57, 461.5 0 M461.5 0 C473.03 1.74, 481.06 4.43, 480 18.5 M461.5 0 C471.81 1.33, 480.55 5.58, 480 18.5 M480 18.5 C479.32 29.32, 480.98 37.26, 480 55.5 M480 18.5 C479.97 29.06, 480.04 40.21, 480 55.5 M480 55.5 C479.26 66.38, 473.4 73.61, 461.5 74 M480 55.5 C481.12 68.31, 473.2 75.17, 461.5 74 M461.5 74 C286.11 72.73, 110.83 72.5, 18.5 74 M461.5 74 C369.74 73.89, 279.36 73.83, 18.5 74 M18.5 74 C7.01 73.01, 0.49 66.25, 0 55.5 M18.5 74 C5.98 72.28, -1.43 67.43, 0 55.5 M0 55.5 C0.28 45.24, 0.27 36.03, 0 18.5 M0 55.5 C0.9 45.11, 1.06 35, 0 18.5 M0 18.5 C1.36 6.69, 7.24 1.66, 18.5 0 M0 18.5 C0.56 6.69, 5.08 1.03, 18.5 0" stroke="#1e1e1e" stroke-width="2" fill="none"></path></g><g transform="translate(455 368) rotate(0 46.099998474121094 12.5)"><text x="0" y="17.52" font-family="Virgil, Segoe UI Emoji" font-size="20px" fill="#1e1e1e" text-anchor="start" style="white-space: pre;" direction="ltr" dominant-baseline="alphabetic">Example 1</text></g><g transform="translate(454 504) rotate(0 50.50833511352539 12.5)"><text x="0" y="17.52" font-family="Virgil, Segoe UI Emoji" font-size="20px" fill="#1e1e1e" text-anchor="start" style="white-space: pre;" direction="ltr" dominant-baseline="alphabetic">Example 2</text></g><g transform="translate(927 359) rotate(0 47.858333587646484 12.5)"><text x="0" y="17.52" font-family="Virgil, Segoe UI Emoji" font-size="20px" fill="#1e1e1e" text-anchor="start" style="white-space: pre;" direction="ltr" dominant-baseline="alphabetic">Del | Edit</text></g><g transform="translate(931.1416664123535 493.5) rotate(0 47.858333587646484 12.5)"><text x="0" y="17.52" font-family="Virgil, Segoe UI Emoji" font-size="20px" fill="#1e1e1e" text-anchor="start" style="white-space: pre;" direction="ltr" dominant-baseline="alphabetic">Del | Edit</text></g><g stroke-linecap="round" transform="translate(348 244) rotate(0 18 15)"><path d="M15.29 0.28 C18.86 -0.42, 23.78 0.04, 27.07 1.75 C30.37 3.46, 33.81 7.36, 35.04 10.53 C36.27 13.7, 35.88 17.89, 34.44 20.78 C32.99 23.67, 29.68 26.4, 26.37 27.87 C23.05 29.35, 18.31 30.2, 14.55 29.62 C10.79 29.04, 6.19 26.92, 3.81 24.38 C1.43 21.84, 0.18 17.62, 0.24 14.39 C0.31 11.17, 1.58 7.51, 4.19 5.05 C6.8 2.58, 13.84 0.42, 15.9 -0.38 C17.96 -1.19, 16.57 -0.08, 16.55 0.23 M17.77 -0.62 C21.34 -0.7, 26.57 1.97, 29.62 4.23 C32.68 6.48, 35.56 9.78, 36.08 12.92 C36.6 16.06, 34.91 20.23, 32.75 23.07 C30.59 25.91, 26.71 29.06, 23.14 29.95 C19.57 30.85, 14.72 29.72, 11.32 28.45 C7.92 27.19, 4.51 25.1, 2.74 22.37 C0.98 19.64, -0.04 15.15, 0.73 12.09 C1.5 9.03, 4.52 5.94, 7.37 4.03 C10.21 2.11, 15.85 1.31, 17.8 0.62 C19.74 -0.06, 18.97 -0.3, 19.05 -0.07" stroke="#1e1e1e" stroke-width="2" fill="none"></path></g><g stroke-linecap="round" transform="translate(345 353) rotate(0 18 15)"><path d="M21.22 0.11 C24.92 0.44, 29.69 2.51, 32.21 5 C34.74 7.49, 36.52 11.82, 36.38 15.03 C36.24 18.24, 33.94 21.89, 31.36 24.27 C28.77 26.65, 24.58 28.72, 20.87 29.3 C17.16 29.89, 12.39 29.25, 9.11 27.79 C5.83 26.33, 2.58 23.58, 1.18 20.56 C-0.21 17.54, -0.56 12.82, 0.77 9.66 C2.1 6.49, 5.55 3.08, 9.17 1.57 C12.79 0.07, 20.23 0.73, 22.5 0.61 C24.78 0.49, 22.99 0.6, 22.82 0.85 M14.9 0.7 C18.68 0.07, 24.16 0.73, 27.59 2.29 C31.02 3.84, 34.35 7.12, 35.45 10.04 C36.56 12.96, 35.64 16.9, 34.22 19.81 C32.8 22.73, 30.15 25.77, 26.93 27.53 C23.71 29.3, 18.7 30.77, 14.89 30.38 C11.08 29.99, 6.65 27.7, 4.09 25.21 C1.53 22.71, -0.37 18.78, -0.46 15.4 C-0.55 12.03, 1.01 7.56, 3.55 4.97 C6.08 2.37, 12.9 0.49, 14.75 -0.15 C16.6 -0.8, 14.62 0.77, 14.63 1.09" stroke="#1e1e1e" stroke-width="2" fill="none"></path></g><g stroke-linecap="round" transform="translate(347 493) rotate(0 18 15)"><path d="M13.9 0.83 C17.43 0.02, 23.1 0.27, 26.54 1.61 C29.98 2.96, 33.08 5.99, 34.56 8.91 C36.03 11.82, 36.49 15.93, 35.41 19.11 C34.33 22.28, 31.38 26.2, 28.08 27.94 C24.78 29.68, 19.56 29.95, 15.62 29.55 C11.68 29.15, 7.02 27.92, 4.44 25.54 C1.86 23.15, 0.2 18.5, 0.15 15.25 C0.1 12, 1.66 8.61, 4.12 6.04 C6.58 3.46, 12.96 0.71, 14.92 -0.2 C16.88 -1.1, 15.79 0.28, 15.89 0.61 M19.92 -0.32 C23.44 -0.09, 28.47 2.14, 31.05 4.5 C33.63 6.86, 35.21 10.57, 35.4 13.86 C35.59 17.15, 34.5 21.54, 32.18 24.24 C29.87 26.95, 25.21 29.46, 21.5 30.11 C17.78 30.77, 13.18 29.86, 9.91 28.19 C6.63 26.52, 3.43 23.17, 1.86 20.08 C0.28 16.98, -0.64 12.52, 0.44 9.62 C1.52 6.71, 4.96 4.35, 8.31 2.65 C11.66 0.95, 18.41 -0.17, 20.55 -0.58 C22.69 -0.99, 21.18 -0.23, 21.15 0.18" stroke="#1e1e1e" stroke-width="2" fill="none"></path></g><g transform="translate(354 507) rotate(0 17.5 2.5)" stroke="none"><path fill="#1e1e1e" d="M 1.85,-0.69 Q 1.85,-0.69 2.63,1.63 3.41,3.96 4.29,6.71 5.18,9.45 5.83,11.80 6.49,14.15 7.05,17.22 7.61,20.29 7.93,21.84 8.26,23.39 9.00,20.66 9.75,17.92 10.83,16.22 11.92,14.53 12.95,12.94 13.98,11.35 14.61,10.12 15.25,8.88 15.78,6.80 16.32,4.72 17.49,2.53 18.67,0.35 19.41,-1.36 20.16,-3.08 20.74,-4.27 21.33,-5.46 21.89,-6.93 22.46,-8.40 23.44,-9.68 24.41,-10.97 25.46,-12.22 26.50,-13.46 27.54,-14.83 28.58,-16.20 29.23,-17.51 29.88,-18.82 31.74,-20.88 33.60,-22.93 33.95,-23.11 34.29,-23.28 34.68,-23.33 35.06,-23.38 35.44,-23.31 35.82,-23.24 36.15,-23.05 36.49,-22.86 36.75,-22.57 37.01,-22.28 37.16,-21.93 37.31,-21.57 37.34,-21.19 37.38,-20.80 37.28,-20.43 37.19,-20.05 36.98,-19.73 36.77,-19.40 36.47,-19.16 36.17,-18.92 35.81,-18.78 35.45,-18.65 35.06,-18.64 34.67,-18.63 34.30,-18.74 33.94,-18.85 33.62,-19.08 33.31,-19.31 33.08,-19.62 32.86,-19.93 32.74,-20.30 32.63,-20.67 32.64,-21.06 32.65,-21.44 32.78,-21.81 32.92,-22.17 33.16,-22.47 33.40,-22.77 33.72,-22.98 34.05,-23.19 34.43,-23.28 34.80,-23.38 35.19,-23.34 35.57,-23.31 35.93,-23.16 36.28,-23.01 36.57,-22.75 36.86,-22.49 37.05,-22.16 37.24,-21.82 37.31,-21.44 37.38,-21.06 37.33,-20.68 37.28,-20.30 37.11,-19.95 36.94,-19.60 36.66,-19.33 36.39,-19.06 36.39,-19.06 36.39,-19.06 35.18,-17.93 33.97,-16.81 33.17,-15.16 32.37,-13.52 31.35,-12.00 30.34,-10.48 29.25,-8.98 28.16,-7.49 27.26,-6.66 26.36,-5.82 25.63,-4.63 24.90,-3.44 24.29,-2.54 23.68,-1.64 22.96,0.21 22.24,2.06 20.90,5.12 19.56,8.18 19.09,9.49 18.62,10.79 17.82,12.05 17.02,13.30 16.03,14.87 15.03,16.43 14.06,18.10 13.09,19.77 12.16,21.64 11.24,23.52 10.34,24.89 9.44,26.26 8.04,26.34 6.63,26.42 5.82,25.21 5.01,23.99 4.83,22.43 4.66,20.86 4.07,17.95 3.47,15.05 2.75,12.80 2.03,10.55 1.03,7.89 0.03,5.23 -0.90,2.96 -1.85,0.69 -1.91,0.46 -1.96,0.23 -1.96,-0.00 -1.96,-0.24 -1.90,-0.47 -1.85,-0.70 -1.73,-0.92 -1.62,-1.13 -1.46,-1.31 -1.30,-1.48 -1.11,-1.62 -0.91,-1.75 -0.69,-1.84 -0.46,-1.92 -0.22,-1.95 0.00,-1.98 0.24,-1.95 0.48,-1.92 0.70,-1.83 0.92,-1.75 1.12,-1.61 1.32,-1.47 1.47,-1.29 1.63,-1.11 1.74,-0.90 1.85,-0.69 1.85,-0.69 L 1.85,-0.69 Z"></path></g><g stroke-linecap="round" transform="translate(16 875) rotate(0 688 394)"><path d="M32 0 C310.34 -2.59, 589.33 -2.72, 1344 0 M32 0 C489.26 3.42, 946.24 3.59, 1344 0 M1344 0 C1363.57 -0.89, 1377.44 11.02, 1376 32 M1344 0 C1367.47 -1.81, 1377.24 11.43, 1376 32 M1376 32 C1375.73 246.14, 1375.79 460.12, 1376 756 M1376 32 C1373.37 260.55, 1373.95 488.34, 1376 756 M1376 756 C1375.62 778.43, 1367.02 786.72, 1344 788 M1376 756 C1374.97 777.58, 1365.49 786.23, 1344 788 M1344 788 C997.42 788.9, 648.93 790.19, 32 788 M1344 788 C870.63 783.74, 396.82 783.91, 32 788 M32 788 C9.82 787.6, -1 778.03, 0 756 M32 788 C10.65 786.24, 0.81 775.81, 0 756 M0 756 C2.26 571.68, 1.61 388.88, 0 32 M0 756 C1.21 558.79, 1.46 361.03, 0 32 M0 32 C1.32 11.33, 9.33 0.01, 32 0 M0 32 C1.3 11.86, 9.9 -0.33, 32 0" stroke="#1e1e1e" stroke-width="2" fill="none"></path></g><g stroke-linecap="round" transform="translate(313.5 979.5) rotate(0 373 310.5)"><path d="M32 0 C227.56 -1.51, 423.3 -1.38, 714 0 M32 0 C284.79 0.97, 538.4 1.65, 714 0 M714 0 C733.64 -0.5, 745.91 11.36, 746 32 M714 0 C736.15 -0.43, 747.5 8.47, 746 32 M746 32 C744.81 177.12, 744.3 322.61, 746 589 M746 32 C747.73 183.85, 747.6 336.55, 746 589 M746 589 C744.25 611.59, 736.7 621.41, 714 621 M746 589 C747.32 610.83, 733.31 619.09, 714 621 M714 621 C502.82 622.64, 292.56 622.52, 32 621 M714 621 C493.2 619.47, 272.12 619.81, 32 621 M32 621 C11.63 619.17, 0.85 612.29, 0 589 M32 621 C10.8 622.8, -1.39 609.08, 0 589 M0 589 C-1.53 428.66, -0.65 268.89, 0 32 M0 589 C0.7 404.25, 0.82 219.01, 0 32 M0 32 C-1.43 10.89, 11.29 0.17, 32 0 M0 32 C0.57 9.82, 9.41 0.04, 32 0" stroke="#1e1e1e" stroke-width="2" fill="none"></path></g><g transform="translate(407.85999328613275 896) rotate(0 272.14000671386725 33)"><text x="0" y="46.25280000000001" font-family="Virgil, Segoe UI Emoji" font-size="52.80000000000001px" fill="#1e1e1e" text-anchor="start" style="white-space: pre;" direction="ltr" dominant-baseline="alphabetic">Simple Task Manager</text></g><g transform="translate(48 852) rotate(0 69.36666870117188 12.5)"><text x="0" y="17.52" font-family="Virgil, Segoe UI Emoji" font-size="20px" fill="#1e1e1e" text-anchor="start" style="white-space: pre;" direction="ltr" dominant-baseline="alphabetic">Edit/Add Click</text></g><g transform="translate(52 10) rotate(0 26.891666412353516 12.5)"><text x="0" y="17.52" font-family="Virgil, Segoe UI Emoji" font-size="20px" fill="#1e1e1e" text-anchor="start" style="white-space: pre;" direction="ltr" dominant-baseline="alphabetic">Index</text></g><g stroke-linecap="round" transform="translate(357.5 1008.5) rotate(0 323.5 36.5)"><path d="M18.25 0 C214.52 2.09, 412.37 1.15, 628.75 0 M18.25 0 C195.02 -2.19, 372.39 -2, 628.75 0 M628.75 0 C639.36 -1.62, 647.29 4.51, 647 18.25 M628.75 0 C642.26 1.86, 644.74 5.09, 647 18.25 M647 18.25 C648.83 29.31, 647.49 40.51, 647 54.75 M647 18.25 C647.28 26.6, 646.91 33.97, 647 54.75 M647 54.75 C648.14 67.99, 642.51 73.71, 628.75 73 M647 54.75 C645.3 67.28, 639.06 72.7, 628.75 73 M628.75 73 C489.34 71.67, 348.95 70.96, 18.25 73 M628.75 73 C413.05 71.91, 196.92 72.26, 18.25 73 M18.25 73 C4.37 74.05, -1.47 65.72, 0 54.75 M18.25 73 C6.01 74.71, -2.07 68.01, 0 54.75 M0 54.75 C-1.44 41.64, 1.44 28.6, 0 18.25 M0 54.75 C0.84 44.7, -0.08 33.64, 0 18.25 M0 18.25 C-1.38 6.76, 6.59 0.87, 18.25 0 M0 18.25 C-2.22 7.85, 8.28 -0.19, 18.25 0" stroke="#1e1e1e" stroke-width="2" fill="none"></path></g><g transform="translate(392 1044) rotate(0 76.7750015258789 12.5)"><text x="0" y="17.52" font-family="Virgil, Segoe UI Emoji" font-size="20px" fill="#1e1e1e" text-anchor="start" style="white-space: pre;" direction="ltr" dominant-baseline="alphabetic">Task title here</text></g><g stroke-linecap="round" transform="translate(353.5 1109.5) rotate(0 323.5 68)"><path d="M32 0 C159.17 -0.07, 284.33 -0.86, 615 0 M32 0 C168.25 0.72, 304.54 0.57, 615 0 M615 0 C635.35 1.03, 646.6 11.09, 647 32 M615 0 C637.81 -1.39, 646.76 8.93, 647 32 M647 32 C646.17 50.45, 646.55 71.61, 647 104 M647 32 C647.61 57.51, 648 81.76, 647 104 M647 104 C648.81 127.17, 635.73 135.01, 615 136 M647 104 C648.63 124.15, 635.8 137.63, 615 136 M615 136 C442.11 135.56, 269.2 134.95, 32 136 M615 136 C430.01 137.76, 245.14 137.93, 32 136 M32 136 C11.04 135.99, 0 127.33, 0 104 M32 136 C9.85 138.08, 1.32 123.2, 0 104 M0 104 C-1 87.1, 1.09 66.7, 0 32 M0 104 C-0.84 87.1, 0.8 69.32, 0 32 M0 32 C-1.07 10.1, 11.34 -0.68, 32 0 M0 32 C-0.42 10.43, 9.86 -1.99, 32 0" stroke="#1e1e1e" stroke-width="2" fill="none"></path></g><g transform="translate(384 1135) rotate(0 78.36666870117188 12.5)"><text x="0" y="17.52" font-family="Virgil, Segoe UI Emoji" font-size="20px" fill="#1e1e1e" text-anchor="start" style="white-space: pre;" direction="ltr" dominant-baseline="alphabetic">Description here</text></g><g stroke-linecap="round" transform="translate(350.5 1283) rotate(0 339 126)"><path d="M32 0 C183.28 -0.77, 332.65 -0.34, 646 0 M32 0 C263.13 -1.17, 494.09 -1.3, 646 0 M646 0 C669.26 -0.86, 677.11 8.87, 678 32 M646 0 C665.44 1.96, 678.52 12.51, 678 32 M678 32 C679.22 93.85, 678.45 150.62, 678 220 M678 32 C678.19 96.57, 678.78 161.85, 678 220 M678 220 C679.53 239.78, 668.8 253.93, 646 252 M678 220 C677.99 241.37, 667 249.91, 646 252 M646 252 C481.6 253.66, 315.93 254.65, 32 252 M646 252 C477.24 251.37, 308.92 251.31, 32 252 M32 252 C9.75 251.14, -0.96 240.39, 0 220 M32 252 C9.08 252.4, 1.81 240.87, 0 220 M0 220 C-0.76 168.31, -0.51 113.05, 0 32 M0 220 C0.16 157.83, -1.1 94.73, 0 32 M0 32 C-0.3 9.99, 9.53 0.79, 32 0 M0 32 C1.9 10.13, 8.66 -1.19, 32 0" stroke="#1e1e1e" stroke-width="2" fill="none"></path></g><g stroke-linecap="round" transform="translate(803 1547) rotate(0 52 20)"><path d="M10 0 C36.1 1.51, 62.86 -0.68, 94 0 M10 0 C39.06 1.14, 67.75 -0.05, 94 0 M94 0 C102.32 0.52, 103.34 4.71, 104 10 M94 0 C99.58 0.57, 103.56 3.4, 104 10 M104 10 C103.87 16.83, 102.47 22.37, 104 30 M104 10 C103.26 15.79, 104.37 21.36, 104 30 M104 30 C105.61 37.64, 99.4 39.8, 94 40 M104 30 C105.84 37.87, 102.17 40.93, 94 40 M94 40 C67.06 40.18, 43.53 41.01, 10 40 M94 40 C73.73 38.34, 52.18 39.95, 10 40 M10 40 C4.02 38.6, -1.16 36.04, 0 30 M10 40 C3.31 40.7, -0.97 36.27, 0 30 M0 30 C0.83 24.2, 0.96 18.56, 0 10 M0 30 C0.62 23.43, -0.06 16.38, 0 10 M0 10 C0.07 3.27, 1.64 -0.32, 10 0 M0 10 C0.94 1.32, 3.71 -0.48, 10 0" stroke="#1e1e1e" stroke-width="2" fill="none"></path></g><g transform="translate(820.0083351135254 1554.5) rotate(0 34.99166488647461 12.5)"><text x="34.99166488647461" y="17.52" font-family="Virgil, Segoe UI Emoji" font-size="20px" fill="#1e1e1e" text-anchor="middle" style="white-space: pre;" direction="ltr" dominant-baseline="alphabetic">discard</text></g><g stroke-linecap="round" transform="translate(947 1549.5) rotate(0 33 17.5)"><path d="M8.75 0 C21.1 -0.84, 31.88 -0.35, 57.25 0 M8.75 0 C19.16 0.24, 29.64 0.2, 57.25 0 M57.25 0 C61.22 -1.83, 66.86 3.23, 66 8.75 M57.25 0 C62.51 -0.37, 66.08 2.85, 66 8.75 M66 8.75 C64.44 12.81, 65.6 17.01, 66 26.25 M66 8.75 C65.3 15.68, 65.29 22.82, 66 26.25 M66 26.25 C67.64 33.07, 63.77 36.41, 57.25 35 M66 26.25 C65.92 32.33, 62.58 33.96, 57.25 35 M57.25 35 C41.72 34.04, 25.29 36.15, 8.75 35 M57.25 35 C46.49 35.54, 33.63 34.54, 8.75 35 M8.75 35 C1.54 34.76, 0.96 32.35, 0 26.25 M8.75 35 C5.14 34.5, -0.53 32.93, 0 26.25 M0 26.25 C-0.83 20.43, -0.27 12.72, 0 8.75 M0 26.25 C0.25 22.05, -0.47 16.97, 0 8.75 M0 8.75 C-0.39 3.7, 3.42 -0.66, 8.75 0 M0 8.75 C-0.98 1.56, 4.15 1.13, 8.75 0" stroke="#1e1e1e" stroke-width="2" fill="none"></path></g><g transform="translate(957.2000007629395 1554.5) rotate(0 22.799999237060547 12.5)"><text x="22.799999237060547" y="17.52" font-family="Virgil, Segoe UI Emoji" font-size="20px" fill="#1e1e1e" text-anchor="middle" style="white-space: pre;" direction="ltr" dominant-baseline="alphabetic">save</text></g><g transform="translate(381 1260) rotate(0 66.35832977294922 12.5)"><text x="0" y="17.52" font-family="Virgil, Segoe UI Emoji" font-size="20px" fill="#1e1e1e" text-anchor="start" style="white-space: pre;" direction="ltr" dominant-baseline="alphabetic">Custom fields</text></g><g stroke-linecap="round" transform="translate(370 1307) rotate(0 85.5 29.5)"><path d="M14.75 0 C69.69 0.83, 128.01 1.75, 156.25 0 M14.75 0 C69.85 1.75, 122.98 1, 156.25 0 M156.25 0 C164.53 -1.83, 172.08 3.12, 171 14.75 M156.25 0 C166.24 -1.51, 173.27 2.68, 171 14.75 M171 14.75 C170.91 23.7, 172.23 29.59, 171 44.25 M171 14.75 C170.09 25.48, 170.77 35.45, 171 44.25 M171 44.25 C169.9 53, 164.61 57.02, 156.25 59 M171 44.25 C170.1 51.86, 167.9 59.56, 156.25 59 M156.25 59 C106.02 58.47, 53.48 58.58, 14.75 59 M156.25 59 C126.22 58.02, 97.19 59.08, 14.75 59 M14.75 59 C3.82 58.01, 0.01 55.43, 0 44.25 M14.75 59 C4.55 59.8, -1.84 52.72, 0 44.25 M0 44.25 C0.2 38.76, -1.46 32.12, 0 14.75 M0 44.25 C0.03 37.45, 1.02 27.7, 0 14.75 M0 14.75 C-0.28 6.86, 3.6 1.29, 14.75 0 M0 14.75 C-1.07 6.93, 6.04 0.8, 14.75 0" stroke="#1e1e1e" stroke-width="2" fill="none"></path></g><g transform="translate(396 1325) rotate(0 51.63333511352539 12.5)"><text x="0" y="17.52" font-family="Virgil, Segoe UI Emoji" font-size="20px" fill="#1e1e1e" text-anchor="start" style="white-space: pre;" direction="ltr" dominant-baseline="alphabetic">Field Name</text></g><g stroke-linecap="round" transform="translate(570.5 1304.5) rotate(0 85.5 28.5)"><path d="M14.25 0 C53.18 -0.66, 88.56 -1.33, 156.75 0 M14.25 0 C57.57 0.11, 102.09 0.62, 156.75 0 M156.75 0 C165.73 0.12, 171.16 4.75, 171 14.25 M156.75 0 C164.6 -1.57, 172.13 3.31, 171 14.25 M171 14.25 C170.73 20.67, 171.91 26.54, 171 42.75 M171 14.25 C171.43 25.89, 171.78 35.85, 171 42.75 M171 42.75 C170.03 52.82, 165.94 57.64, 156.75 57 M171 42.75 C168.93 52.9, 166.19 56.04, 156.75 57 M156.75 57 C113.43 56.45, 72.62 58.67, 14.25 57 M156.75 57 C123.42 57.41, 92.18 56.88, 14.25 57 M14.25 57 C3.17 55.85, 1.88 51.91, 0 42.75 M14.25 57 C6.79 58.55, 0.32 52.47, 0 42.75 M0 42.75 C1.37 33.91, 0.46 24.52, 0 14.25 M0 42.75 C-0.41 34.38, 0.48 25.72, 0 14.25 M0 14.25 C1.85 3.84, 5.43 -1.1, 14.25 0 M0 14.25 C1.78 5.92, 3.68 -1.76, 14.25 0" stroke="#1e1e1e" stroke-width="2" fill="none"></path></g><g transform="translate(600.3666648864746 1323.5) rotate(0 52.34166717529297 12.5)"><text x="0" y="17.52" font-family="Virgil, Segoe UI Emoji" font-size="20px" fill="#1e1e1e" text-anchor="start" style="white-space: pre;" direction="ltr" dominant-baseline="alphabetic">Field Value</text></g><g transform="translate(554 1325) rotate(0 10 12.5)"><text x="0" y="17.52" font-family="Virgil, Segoe UI Emoji" font-size="20px" fill="#1e1e1e" text-anchor="start" style="white-space: pre;" direction="ltr" dominant-baseline="alphabetic">:</text></g><g stroke-linecap="round" transform="translate(766.5 1307.5) rotate(0 59 28.5)"><path d="M14.25 0 C46.78 1.61, 75.87 -0.65, 103.75 0 M14.25 0 C42.27 -0.74, 71.07 -0.19, 103.75 0 M103.75 0 C114.87 1.64, 117.11 4.86, 118 14.25 M103.75 0 C111.22 -1.95, 118.11 5.1, 118 14.25 M118 14.25 C119.11 19.01, 118.22 26.38, 118 42.75 M118 14.25 C117.93 22.59, 117.57 31.96, 118 42.75 M118 42.75 C119.42 51.38, 113.86 57.61, 103.75 57 M118 42.75 C115.95 50.59, 113.88 58.29, 103.75 57 M103.75 57 C77.13 58.47, 48.86 57.01, 14.25 57 M103.75 57 C73.73 57, 44.95 58.4, 14.25 57 M14.25 57 C3.93 56.59, 1.91 52.71, 0 42.75 M14.25 57 C6.48 56.95, 0.88 52.29, 0 42.75 M0 42.75 C-0.58 31.57, -0.61 23.06, 0 14.25 M0 42.75 C-0.66 31.3, -0.64 19.58, 0 14.25 M0 14.25 C0.38 5.83, 3.55 0.43, 14.25 0 M0 14.25 C0.7 3.13, 2.94 -1.17, 14.25 0" stroke="#1e1e1e" stroke-width="2" fill="none"></path></g><g transform="translate(777.658332824707 1323.5) rotate(0 47.46666717529297 12.5)"><text x="0" y="17.52" font-family="Virgil, Segoe UI Emoji" font-size="20px" fill="#1e1e1e" text-anchor="start" style="white-space: pre;" direction="ltr" dominant-baseline="alphabetic">Field type</text></g><g transform="translate(904.0583324432373 1328.5) rotate(0 17.941667556762695 12.5)"><text x="0" y="17.52" font-family="Virgil, Segoe UI Emoji" font-size="20px" fill="#1e1e1e" text-anchor="start" style="white-space: pre;" direction="ltr" dominant-baseline="alphabetic">Add</text></g><g stroke-linecap="round" transform="translate(373.02916622161865 1403.75) rotate(0 85.5 29.5)"><path d="M14.75 0 C48.5 -0.38, 80.8 -0.47, 156.25 0 M14.75 0 C67.42 0.06, 121.43 0.05, 156.25 0 M156.25 0 C165.3 -1.42, 169.06 6.43, 171 14.75 M156.25 0 C165.85 -0.05, 172.19 5.84, 171 14.75 M171 14.75 C169.31 21.27, 172.26 31.05, 171 44.25 M171 14.75 C170.49 23.92, 171.07 30.86, 171 44.25 M171 44.25 C170.17 53.35, 165.52 57.24, 156.25 59 M171 44.25 C169.16 56.26, 168.35 57.95, 156.25 59 M156.25 59 C124.87 58.5, 88.76 57.45, 14.75 59 M156.25 59 C105.19 59.14, 55.92 59.11, 14.75 59 M14.75 59 C4.57 58.85, -0.96 53.3, 0 44.25 M14.75 59 C4.84 57.27, 1 52.03, 0 44.25 M0 44.25 C-1.38 37.71, 1.52 31.47, 0 14.75 M0 44.25 C0.82 33.82, -0.92 21.74, 0 14.75 M0 14.75 C-0.07 5.48, 6.45 -1.74, 14.75 0 M0 14.75 C1.06 6.94, 3.27 -1.25, 14.75 0" stroke="#1e1e1e" stroke-width="2" fill="none"></path></g><g transform="translate(400.02916622161865 1421.75) rotate(0 40.58333206176758 12.5)"><text x="0" y="17.52" font-family="Virgil, Segoe UI Emoji" font-size="20px" fill="#1e1e1e" text-anchor="start" style="white-space: pre;" direction="ltr" dominant-baseline="alphabetic">Deadline</text></g><g stroke-linecap="round" transform="translate(573.5291662216187 1401.25) rotate(0 85.5 28.5)"><path d="M14.25 0 C56.96 -1.3, 96.64 -1.33, 156.75 0 M14.25 0 C58.3 -0.86, 102.17 0.61, 156.75 0 M156.75 0 C166.04 -0.04, 172.03 5.55, 171 14.25 M156.75 0 C165.18 0.14, 172.96 2.79, 171 14.25 M171 14.25 C170.79 20.23, 173.09 27.96, 171 42.75 M171 14.25 C170.66 24.98, 170.79 35.57, 171 42.75 M171 42.75 C169.4 54.14, 168.22 56.09, 156.75 57 M171 42.75 C169.5 53.3, 165.75 59.13, 156.75 57 M156.75 57 C116.5 57.71, 74.11 55.33, 14.25 57 M156.75 57 C113.69 56.9, 70.49 56.59, 14.25 57 M14.25 57 C4.68 55.5, 0.87 50.47, 0 42.75 M14.25 57 C3.56 57.21, -0.33 50.7, 0 42.75 M0 42.75 C1.4 33.58, 1.42 25.2, 0 14.25 M0 42.75 C0.21 32.17, 1.01 20.17, 0 14.25 M0 14.25 C0.92 6.51, 3.32 -1.09, 14.25 0 M0 14.25 C-0.62 4.67, 5.78 -1.67, 14.25 0" stroke="#1e1e1e" stroke-width="2" fill="none"></path></g><g transform="translate(603.3958311080933 1420.25) rotate(0 59.858333587646484 12.5)"><text x="0" y="17.52" font-family="Virgil, Segoe UI Emoji" font-size="20px" fill="#1e1e1e" text-anchor="start" style="white-space: pre;" direction="ltr" dominant-baseline="alphabetic">2024-08-01</text></g><g transform="translate(557.0291662216187 1421.75) rotate(0 10 12.5)"><text x="0" y="17.52" font-family="Virgil, Segoe UI Emoji" font-size="20px" fill="#1e1e1e" text-anchor="start" style="white-space: pre;" direction="ltr" dominant-baseline="alphabetic">:</text></g><g stroke-linecap="round" transform="translate(769.5291662216187 1404.25) rotate(0 59 28.5)"><path d="M14.25 0 C34.4 -0.59, 52.71 -1.75, 103.75 0 M14.25 0 C48.41 0.42, 81.07 0.08, 103.75 0 M103.75 0 C114.95 -1.71, 117.04 6, 118 14.25 M103.75 0 C114.79 -0.45, 116.61 6.95, 118 14.25 M118 14.25 C117.37 21.03, 117.52 28.92, 118 42.75 M118 14.25 C118.76 19.84, 117.12 26.8, 118 42.75 M118 42.75 C117.56 54.11, 113.06 55.99, 103.75 57 M118 42.75 C116.57 53.59, 115.08 57.21, 103.75 57 M103.75 57 C80.41 57.55, 56.98 56.93, 14.25 57 M103.75 57 C80.84 55.43, 56.54 56.42, 14.25 57 M14.25 57 C4.46 55.65, 0.78 53.8, 0 42.75 M14.25 57 C6.91 58.86, 0.57 54.14, 0 42.75 M0 42.75 C-0.3 31.59, 0.33 22.12, 0 14.25 M0 42.75 C-0.85 36.13, -0.4 30.56, 0 14.25 M0 14.25 C0.9 3.3, 3.07 -0.79, 14.25 0 M0 14.25 C1.27 2.74, 2.9 -1.01, 14.25 0" stroke="#1e1e1e" stroke-width="2" fill="none"></path></g><g transform="translate(780.6874990463257 1420.25) rotate(0 25.58333396911621 12.5)"><text x="0" y="17.52" font-family="Virgil, Segoe UI Emoji" font-size="20px" fill="#1e1e1e" text-anchor="start" style="white-space: pre;" direction="ltr" dominant-baseline="alphabetic">Date</text></g><g transform="translate(897.1416664123535 1420.5) rotate(0 47.858333587646484 12.5)"><text x="0" y="17.52" font-family="Virgil, Segoe UI Emoji" font-size="20px" fill="#1e1e1e" text-anchor="start" style="white-space: pre;" direction="ltr" dominant-baseline="alphabetic">Del | Edit</text></g><g stroke-linecap="round"><g transform="translate(1009 1308) rotate(0 0 99.5)"><path d="M1.11 -0.26 C1.2 32.9, -0.36 165.81, -0.35 198.96 M0.23 -1.44 C0.21 31.92, -1.61 166.95, -1.48 200.48" stroke="#1e1e1e" stroke-width="4" fill="none"></path></g></g><mask></mask><g stroke-linecap="round"><g transform="translate(1010 1320) rotate(0 -0.5 23.5)"><path d="M0.04 0.38 C-0.13 8.35, -0.91 39.69, -1.02 47.39 M-0.6 0.1 C-0.85 7.95, -1.44 38.82, -1.46 46.63" stroke="#f08c00" stroke-width="4" fill="none"></path></g></g><mask></mask></svg>